<?xml version="1.0" standalone="no"?>
<!DOCTYPE svg PUBLIC "-//W3C//DTD SVG 20010904//EN"
 "http://www.w3.org/TR/2001/REC-SVG-20010904/DTD/svg10.dtd">
<svg version="1.0" xmlns="http://www.w3.org/2000/svg"
 width="512.000000pt" height="512.000000pt" viewBox="0 0 512.000000 512.000000"
 preserveAspectRatio="xMidYMid meet">
<metadata>
Created by potrace 1.14, written by Peter Selinger 2001-2017
</metadata>
<g transform="translate(0.000000,512.000000) scale(0.100000,-0.100000)"
fill="#000000" stroke="none">
<path d="M2348 4744 c-22 -11 -32 -30 -50 -88 l-23 -74 -112 44 c-138 54 -319
104 -376 104 -113 0 -322 -64 -444 -136 -67 -39 -133 -103 -133 -128 0 -26
-34 -76 -92 -137 -41 -42 -98 -155 -98 -193 0 -7 -9 -21 -20 -31 -17 -15 -20
-30 -20 -94 1 -91 -2 -104 -73 -262 -47 -103 -58 -140 -68 -219 -6 -52 -17
-102 -24 -110 -7 -8 -27 -43 -44 -78 -17 -34 -40 -68 -52 -75 -39 -23 -79
-100 -85 -163 -5 -51 -3 -63 16 -86 46 -58 100 -22 100 67 1 55 24 120 33 95
4 -8 21 -60 38 -115 75 -237 184 -386 335 -457 62 -29 78 -32 160 -32 81 1 99
4 147 29 73 36 108 74 156 166 l39 76 33 -18 c34 -18 56 -27 219 -90 104 -40
144 -66 177 -114 35 -52 51 -94 58 -156 3 -30 8 -62 11 -72 3 -11 -1 -19 -13
-24 -30 -10 -53 -35 -53 -56 0 -10 14 -32 31 -48 28 -26 30 -33 24 -67 -3 -20
-22 -71 -40 -112 -18 -41 -37 -93 -41 -115 -4 -22 -16 -52 -26 -68 -33 -46
-105 -239 -112 -297 -7 -57 -24 -169 -32 -207 -4 -22 -65 -56 -184 -103 -30
-12 -66 -26 -80 -32 -14 -6 -56 -21 -95 -35 -100 -36 -178 -78 -193 -103 -11
-18 -11 -25 2 -45 18 -28 66 -43 156 -51 63 -6 68 -5 166 45 86 43 111 51 157
51 41 0 63 6 90 24 l35 24 66 -65 c66 -64 131 -102 173 -103 41 0 52 -49 28
-125 -15 -46 -22 -86 -31 -168 -9 -77 -27 -97 -93 -108 -183 -29 -376 -165
-389 -275 -4 -39 -1 -47 29 -77 86 -86 429 -139 914 -142 276 -2 440 11 491
38 18 9 46 19 64 22 46 8 89 32 132 72 34 33 39 35 68 25 70 -25 196 33 226
103 42 100 -26 237 -150 302 -90 47 -235 88 -345 98 -57 6 -163 23 -166 27 -4
7 -25 190 -25 222 0 26 13 59 43 109 86 143 127 256 141 392 6 50 -3 163 -17
225 -2 8 -7 33 -11 55 -26 138 -126 311 -295 513 -47 57 -85 109 -83 115 7 23
-10 59 -44 93 -46 48 -53 83 -25 127 37 60 134 127 486 335 200 118 377 254
460 352 102 120 165 254 165 352 0 37 1 38 37 38 108 0 210 121 187 223 -15
72 -51 132 -92 155 -52 29 -136 30 -172 2 -14 -11 -28 -20 -32 -20 -3 0 -24
35 -45 77 -28 57 -57 97 -113 151 -41 41 -91 82 -110 92 -65 33 -194 79 -254
89 -76 14 -336 14 -501 1 -148 -12 -139 -17 -175 95 -28 84 -45 120 -71 146
-23 23 -35 23 -71 3z m85 -125 c8 -29 -11 -23 -28 11 -8 16 -15 32 -15 36 0
14 38 -28 43 -47z m-446 -16 c45 -16 98 -42 117 -57 20 -15 48 -26 65 -26 17
0 48 -7 69 -15 l38 -16 -2 -101 -3 -102 -73 -74 c-40 -40 -95 -85 -123 -99
-118 -58 -150 -79 -192 -124 -27 -29 -57 -50 -76 -55 -47 -10 -89 -33 -112
-63 -36 -46 -74 -77 -152 -120 -59 -33 -78 -40 -85 -29 -5 7 -12 18 -16 24
-12 17 -78 64 -90 64 -23 0 -11 -30 60 -142 89 -141 136 -235 149 -301 6 -29
18 -67 26 -86 9 -19 20 -90 26 -158 9 -107 8 -132 -7 -184 -9 -33 -25 -73 -35
-87 -10 -15 -30 -48 -45 -74 -51 -91 -143 -132 -242 -108 -30 7 -63 19 -72 26
-15 12 -13 13 17 14 19 0 64 9 100 19 36 10 78 22 92 25 36 8 107 83 119 126
5 19 10 95 10 168 0 116 -2 136 -20 160 -10 15 -30 72 -43 127 -29 120 -38
138 -100 204 -27 28 -53 67 -58 85 -14 50 -43 82 -112 122 -34 20 -66 43 -70
50 -7 12 -12 10 -27 -8 l-18 -23 -7 27 c-7 26 -9 24 -43 -40 -46 -87 -72 -173
-72 -240 0 -41 -7 -66 -31 -109 -28 -51 -30 -59 -20 -93 6 -21 11 -66 11 -100
0 -44 5 -69 16 -81 9 -10 19 -39 22 -65 3 -29 17 -64 38 -96 19 -28 34 -55 34
-60 0 -6 18 -39 40 -74 39 -62 47 -84 34 -97 -13 -13 -90 52 -146 123 -32 39
-91 168 -105 225 -10 46 -14 284 -5 330 23 119 77 304 103 355 28 55 31 65 44
170 4 30 11 60 15 65 4 6 11 27 14 49 4 21 16 55 27 75 10 20 19 39 19 44 0
20 87 150 132 197 27 29 56 67 64 85 17 42 110 94 242 136 53 17 108 35 122
39 14 5 77 8 140 7 100 -3 126 -7 197 -34z m333 -48 c0 -25 -23 -35 -35 -15
-10 16 2 40 20 40 9 0 15 -9 15 -25z m69 -142 l-2 -68 -7 55 c-6 50 -4 80 6
80 2 0 3 -30 3 -67z m860 3 c85 -36 142 -76 221 -156 148 -147 209 -292 210
-495 0 -119 -8 -153 -63 -265 -32 -67 -58 -101 -117 -159 -92 -90 -144 -133
-190 -156 -19 -10 -55 -35 -80 -55 -79 -65 -125 -84 -211 -85 -71 0 -78 -2
-113 -33 -37 -32 -37 -32 -74 -16 -106 46 -158 52 -230 29 -19 -6 -33 4 -91
65 -56 58 -75 73 -102 74 -24 1 -34 8 -41 26 -23 61 -68 77 -106 37 -29 -30
-40 -89 -30 -161 13 -92 60 -152 173 -221 59 -36 62 -36 140 -31 44 3 99 8
123 12 24 4 42 3 42 -3 0 -5 -23 -31 -51 -58 -27 -26 -61 -70 -75 -96 -24 -49
-32 -123 -14 -134 17 -11 11 -44 -10 -55 -11 -6 -39 -13 -62 -15 -104 -10
-231 -45 -244 -66 -14 -23 -22 -2 -27 70 -8 102 -24 138 -89 207 -71 76 -179
131 -311 159 -80 18 -122 38 -137 65 -7 13 -9 50 -4 103 7 96 -9 213 -37 269
-11 21 -18 41 -17 45 6 23 -28 126 -62 191 -22 41 -40 78 -40 82 0 5 51 49
113 99 61 49 141 114 177 144 36 30 134 100 218 157 85 56 169 118 189 137 19
19 37 33 39 30 3 -3 7 -22 9 -44 2 -21 15 -75 30 -120 23 -75 29 -84 72 -112
25 -17 54 -31 62 -31 48 0 88 65 107 174 13 76 10 274 -5 351 -5 27 -7 52 -5
55 10 9 238 18 439 15 204 -2 212 -2 274 -29z m-751 -54 c2 -7 -3 -12 -12 -12
-9 0 -16 7 -16 16 0 17 22 14 28 -4z m12 -123 c0 -6 -4 -7 -10 -4 -5 3 -10 11
-10 16 0 6 5 7 10 4 6 -3 10 -11 10 -16z m10 -96 c0 -22 -2 -25 -10 -13 -13
20 -13 40 0 40 6 0 10 -12 10 -27z m1358 -101 c39 -34 43 -42 48 -98 7 -64 -5
-104 -31 -104 -10 0 -15 11 -15 34 0 44 -28 93 -57 101 -13 3 -39 -1 -58 -9
-68 -29 -87 12 -37 77 23 31 33 36 67 37 32 0 48 -7 83 -38z m-2728 -423 c4
-15 4 -33 -1 -40 -7 -12 -13 -11 -35 2 -35 21 -37 39 -12 81 l21 33 9 -25 c6
-14 14 -37 18 -51z m-32 -157 c2 -22 -2 -34 -13 -38 -23 -9 -27 -1 -19 40 8
44 28 42 32 -2z m239 -85 c4 -29 2 -36 -9 -32 -16 7 -38 81 -37 128 l0 32 20
-45 c11 -25 23 -62 26 -83z m67 -115 c19 -36 24 -84 11 -89 -23 -8 -47 24 -52
70 -5 39 -3 47 10 47 9 0 23 -13 31 -28z m-104 -31 c18 -35 11 -41 -25 -20
-36 22 -38 39 -5 39 11 0 24 -9 30 -19z m-270 -57 c0 -48 -3 -65 -12 -62 -7 3
-15 15 -16 28 -4 24 14 100 23 100 3 0 5 -30 5 -66z m250 -4 c0 -5 -7 -10 -16
-10 -8 0 -12 5 -9 10 3 6 10 10 16 10 5 0 9 -4 9 -10z m88 -67 c-2 -20 -9 -29
-25 -31 -27 -4 -28 1 -7 33 22 33 36 32 32 -2z m-222 -37 c-3 -14 -13 -26 -21
-26 -18 0 -19 11 -3 45 14 32 33 17 24 -19z m1225 9 c3 -18 -24 -105 -33 -105
-15 0 -67 65 -68 84 0 11 7 27 16 37 13 15 20 16 49 6 19 -7 35 -16 36 -22z
m-893 -93 c3 -71 1 -79 -23 -107 -18 -20 -24 -23 -19 -10 5 11 10 64 12 119 3
76 6 96 15 87 7 -7 13 -47 15 -89z m1069 -32 c10 0 33 -77 25 -85 -13 -13 -56
-2 -119 31 -37 19 -71 39 -76 43 -4 4 4 34 18 65 l26 58 59 -56 c32 -31 62
-56 67 -56z m191 23 c119 -68 113 -85 -35 -99 l-70 -7 -13 54 c-16 65 -16 63
12 71 42 11 59 8 106 -19z m-1595 -38 c-4 -33 0 -54 16 -85 26 -50 26 -53 3
-41 -10 5 -27 28 -37 50 -16 35 -16 47 -6 81 16 54 30 51 24 -5z m97 11 c0 -3
-4 -8 -10 -11 -5 -3 -10 -1 -10 4 0 6 5 11 10 11 6 0 10 -2 10 -4z m1214 -511
c-3 -8 -22 -17 -42 -21 -21 -4 -45 -11 -54 -16 -13 -6 -18 -5 -18 6 0 13 24
23 74 33 11 2 22 6 25 8 10 11 20 4 15 -10z m156 -51 c26 -6 49 -28 118 -116
48 -61 96 -126 107 -146 11 -21 33 -59 49 -86 77 -132 109 -211 127 -316 23
-135 23 -195 -1 -302 -24 -112 -82 -226 -139 -274 l-24 -20 13 -163 c16 -198
28 -225 100 -228 128 -7 294 -48 431 -107 92 -40 128 -67 159 -118 27 -44 25
-74 -7 -117 -43 -58 -60 -63 -119 -35 -28 14 -34 22 -34 48 0 18 -14 55 -32
85 -38 63 -130 124 -200 134 -24 4 -68 11 -98 17 -92 18 -281 40 -337 40 -59
0 -53 -9 -58 95 -3 69 -17 159 -26 177 -14 27 -38 22 -46 -9 -11 -40 -7 -221
6 -269 l11 -40 177 -16 c296 -27 461 -90 534 -207 29 -45 31 -78 6 -109 -15
-18 -106 -64 -116 -58 -4 3 -13 31 -20 62 -10 44 -22 66 -55 99 -44 43 -81 61
-93 42 -3 -5 12 -27 35 -49 53 -49 62 -67 62 -120 0 -64 -8 -70 -86 -71 -127
-1 -143 9 -150 96 -3 46 -20 69 -48 65 -32 -5 -30 -33 2 -64 41 -39 47 -66 23
-95 -19 -24 -23 -24 -213 -27 -176 -4 -262 2 -458 28 -36 5 -105 14 -155 21
-86 11 -195 38 -242 61 -17 8 -23 20 -23 43 0 66 165 176 294 196 33 5 72 18
86 28 31 23 59 101 60 170 0 48 17 125 40 187 5 12 4 40 -2 64 -10 38 -19 48
-94 96 -122 79 -180 142 -204 224 -25 83 -25 95 -1 134 11 18 22 60 26 101 3
39 12 97 19 130 8 33 19 87 26 120 7 33 21 75 32 94 45 80 128 313 128 359 0
39 18 62 49 62 35 0 142 35 201 66 45 23 100 29 160 18z m-750 -1051 c0 -20
-59 -103 -90 -130 -77 -65 -239 -132 -285 -118 -49 16 -49 15 -37 27 20 20 14
27 -20 23 l-33 -4 29 23 c16 13 58 32 95 41 70 19 166 59 266 112 63 34 75 38
75 26z"/>
<path d="M2492 1778 c-14 -83 -14 -85 21 -218 53 -198 47 -303 -19 -346 -33
-22 -44 -10 -53 57 l-7 54 -17 -32 c-11 -20 -17 -55 -17 -91 0 -72 -7 -77 -87
-56 -73 19 -85 30 -57 52 17 13 23 33 28 85 4 38 3 67 -2 67 -20 0 -34 -32
-42 -95 -5 -37 -11 -69 -14 -73 -11 -10 -58 42 -76 83 -10 23 -16 52 -15 65 1
14 3 31 4 38 0 7 16 20 35 29 44 21 48 39 25 116 -10 34 -19 76 -19 93 0 16
-7 39 -15 50 -8 11 -14 41 -15 72 0 44 -3 52 -19 52 -15 0 -19 -11 -25 -77 -9
-112 -8 -163 7 -220 12 -45 12 -51 -4 -61 -9 -6 -26 -31 -39 -56 -21 -44 -21
-48 -6 -98 13 -43 27 -63 74 -104 164 -146 297 -146 427 -2 63 70 76 98 82
182 5 67 3 76 -35 162 -49 112 -78 202 -87 277 -4 31 -11 57 -15 57 -4 0 -13
-28 -18 -62z"/>
</g>
</svg>
